<?xml version="1.0" encoding="utf-8"?>
<!-- Generator: Adobe Illustrator 25.0.1, SVG Export Plug-In . SVG Version: 6.00 Build 0)  -->
<svg version="1.1" id="Capa_1" xmlns="http://www.w3.org/2000/svg" xmlns:xlink="http://www.w3.org/1999/xlink" x="0px" y="0px"
	 viewBox="0 0 219.32 218" style="enable-background:new 0 0 219.32 218;" xml:space="preserve">
<style type="text/css">
	.st0{fill:#FFFFFF;}
</style>
<g>
	<path class="st0" d="M109.64,57.31c-28.17,0-51.08,22.91-51.08,51.08c0,9.3,2.58,18.46,7.47,26.48l1.32,2.17l-5.1,19.05l19.15-5.13
		l2.16,1.29c7.93,4.72,16.95,7.22,26.08,7.22c28.17,0,51.08-22.91,51.08-51.08C160.72,80.22,137.81,57.31,109.64,57.31z
		 M139.65,127.68c-1.9,4.61-6.62,7.58-11.41,8.49c-4.57,0.87-8.35-0.59-12.58-1.99c-3.78-1.25-7.42-3.07-10.81-5.14
		c-6.78-4.15-12.63-9.71-17.33-16.1c-1.44-1.95-2.77-3.98-4-6.08c-1.63-2.78-3.07-5.7-3.83-8.82c-0.31-1.3-0.48-2.64-0.49-3.99
		c-0.05-4.74,1.75-9.52,5.5-12.58c2.17-1.77,5.38-2.54,7.82-1.16c2.65,1.5,4.03,5.27,5.25,7.92c0.96,2.07,2.05,4.79,1.66,7.12
		c-0.4,2.33-2.24,4.29-3.7,6.01c-0.99,1.17-1.14,2.16-0.32,3.41c4.85,8.09,11.59,13.96,20.39,17.47c1.2,0.48,2.13,0.33,2.91-0.63
		c1.52-1.87,3.01-5.54,5.36-6.5c3.05-1.25,6.43,0.48,9.02,2.03c2.41,1.44,6.45,3.22,7.1,6.2
		C140.49,124.8,140.21,126.32,139.65,127.68z"/>
	<path class="st0" d="M108.66,0.22C48.1,0.22-1,49.32-1,109.88c0,60.56,49.1,109.66,109.66,109.66
		c60.56,0,109.66-49.1,109.66-109.66C218.32,49.32,169.22,0.22,108.66,0.22z M109.64,171.38c-10.43,0-20.72-2.63-29.94-7.63
		l-34.29,9.19l9.14-34.11c-5.18-9.34-7.9-19.81-7.9-30.43c0-34.73,28.26-62.99,62.99-62.99c34.73,0,62.99,28.26,62.99,62.99
		C172.63,143.12,144.37,171.38,109.64,171.38z"/>
</g>
</svg>
